# xmcd
#
# Track frame offsets: 
#        150
#        17600
#        51138
#
# Disc length: 1134 seconds
#
# Revision: 0
# Processed by: cddbd v1.5.2PL0 Copyright (c) Steve Scherf et al.
# Submitted via: ExactAudioCopy v1.0b3
#
DISCID=1a046c03
DTITLE=M-Traxx - Wake Up Little Child
DYEAR=1900
DGENRE=
TTITLE0=Wake Up Little Child (Radio Edit)
TTITLE1=Wake Up Little Child (Don't Sleep Mix)
TTITLE2=Wake Up Little Child (Club Mix)
EXTD=
EXTT0=
EXTT1=
EXTT2=
PLAYORDER=
